<svg version="1.1" xmlns="http://www.w3.org/2000/svg" width="180" height="120" viewBox="0 0 600 400"><path d="M0 0 C198 0 396 0 600 0 C600 132 600 264 600 400 C402 400 204 400 0 400 C0 268 0 136 0 0 Z " fill="#FEFEFE" transform="translate(0,0)" /><path d="M0 0 C8.91 0 17.82 0 27 0 C30.5 7 30.5 7 31.67236328 9.34692383 C33.52277512 13.05083889 35.37775895 16.75233733 37.2421875 20.44921875 C37.59990234 21.16013672 37.95761719 21.87105469 38.32617188 22.60351562 C39.01073351 23.96371537 39.69686089 25.32312856 40.38476562 26.68164062 C42.09649778 30.08753068 43.58027194 33.45067986 45 37 C45.33 24.79 45.66 12.58 46 0 C55.9 0 65.8 0 76 0 C76 35.97 76 71.94 76 109 C65.77 109 55.54 109 45 109 C39.6875 94.5 39.6875 94.5 38.0300293 89.97460938 C37.59086182 88.77642578 37.15169434 87.57824219 36.69921875 86.34375 C36.25408936 85.12880859 35.80895996 83.91386719 35.3503418 82.66210938 C33.91492856 78.76928737 32.45682272 74.8848606 31 71 C30.67 83.54 30.34 96.08 30 109 C20.1 109 10.2 109 0 109 C0 73.03 0 37.06 0 0 Z " fill="#EE1C25" transform="translate(508,157)" /><path d="M0 0 C8.91 0 17.82 0 27 0 C32.62795409 9.00472654 32.62795409 9.00472654 34.82421875 13.63671875 C35.53094727 15.12075195 35.53094727 15.12075195 36.25195312 16.63476562 C36.72568359 17.64216797 37.19941406 18.64957031 37.6875 19.6875 C38.17283203 20.70650391 38.65816406 21.72550781 39.15820312 22.77539062 C41.23429984 27.15380702 43.19873828 31.49684569 45 36 C45.33 24.12 45.66 12.24 46 0 C55.9 0 65.8 0 76 0 C76 35.97 76 71.94 76 109 C65.77 109 55.54 109 45 109 C44.29875 106.855 43.5975 104.71 42.875 102.5 C40.14556304 94.24473721 37.0940597 86.12402014 34 78 C33.01 75.36 32.02 72.72 31 70 C30.67 82.87 30.34 95.74 30 109 C20.1 109 10.2 109 0 109 C0 73.03 0 37.06 0 0 Z " fill="#EE1C25" transform="translate(20,157)" /><path d="M0 0 C57.64529915 0 57.64529915 0 68.125 9.015625 C73.35377058 14.5494072 75.78851652 20.45708936 76 28 C76.05027344 28.78246094 76.10054688 29.56492188 76.15234375 30.37109375 C76.47949962 38.75937031 74.76819331 46.73863199 69.52734375 53.4609375 C66.76655623 56.24290754 63.5660217 58.38111567 60 60 C59.01 60 58.02 60 57 60 C57.35191406 60.7842334 57.70382812 61.5684668 58.06640625 62.37646484 C61.20286506 69.36696001 64.33680997 76.35857259 67.46794128 83.35145569 C69.18783373 87.19129139 70.91363158 91.02839046 72.64453125 94.86328125 C73.36726003 96.47132157 74.08992282 98.07939155 74.8125 99.6875 C75.14314453 100.41565918 75.47378906 101.14381836 75.81445312 101.89404297 C78 106.77326441 78 106.77326441 78 109 C67.11 109 56.22 109 45 109 C40.43276593 97.39922546 36.09183947 85.7765136 32 74 C31.67 85.55 31.34 97.1 31 109 C20.77 109 10.54 109 0 109 C0 73.03 0 37.06 0 0 Z " fill="#EE1C25" transform="translate(369,157)" /><path d="M0 0 C9.57 0 19.14 0 29 0 C29 12.87 29 25.74 29 39 C34.61 39 40.22 39 46 39 C46 26.13 46 13.26 46 0 C55.24 0 64.48 0 74 0 C74 35.97 74 71.94 74 109 C64.76 109 55.52 109 46 109 C46 95.14 46 81.28 46 67 C40.39 67 34.78 67 29 67 C29 80.86 29 94.72 29 109 C19.43 109 9.86 109 0 109 C0 73.03 0 37.06 0 0 Z " fill="#EE1D26" transform="translate(232,157)" /><path d="M0 0 C0 9.24 0 18.48 0 28 C-5 27 -5 27 -7.75 25.9375 C-11.92685203 24.73263884 -15.69247528 24.22767117 -20 25 C-24.92328172 28.63894736 -27.52186089 33.24073888 -28.5625 39.24609375 C-29.93171882 50.99448023 -29.81502759 62.87861516 -24.125 73.5 C-20.35835529 78.18992201 -20.35835529 78.18992201 -14.92578125 80.3125 C-9.68918782 80.45475042 -6.28605045 79.51030013 -1 78 C-1 87.57 -1 97.14 -1 107 C-12.26288221 110.75429407 -22.41660095 111.98533649 -33.57421875 107.2578125 C-45.55649111 101.04478239 -53.35204765 90.52201204 -58 78 C-60.55241144 69.92600077 -61.52147949 62.32160419 -61.4375 53.875 C-61.42992676 52.79404053 -61.42235352 51.71308105 -61.41455078 50.59936523 C-61.14063441 37.09248906 -59.36663059 24.04570915 -51 13 C-50.2575 11.948125 -49.515 10.89625 -48.75 9.8125 C-34.62983842 -4.62857434 -18.74272896 -5.11165335 0 0 Z " fill="#EE1D26" transform="translate(216,158)" /><path d="M0 0 C10.56 0 21.12 0 32 0 C32 36.3 32 72.6 32 110 C21.44 110 10.88 110 0 110 C0 73.7 0 37.4 0 0 Z " fill="#EE1D26" transform="translate(324,156)" /><path d="M0 0 C10.23 0 20.46 0 31 0 C31 36.3 31 72.6 31 110 C20.77 110 10.54 110 0 110 C0 73.7 0 37.4 0 0 Z " fill="#ED1A23" transform="translate(462,156)" /><path d="M0 0 C9.9 0 19.8 0 30 0 C30 36.3 30 72.6 30 110 C20.1 110 10.2 110 0 110 C0 73.7 0 37.4 0 0 Z " fill="#ED1A23" transform="translate(113,156)" /><path d="M0 0 C7.89017341 0 7.89017341 0 10.375 2.375 C13.85410411 5.85410411 14.18799056 7.45311005 14.3125 12.25 C14.25942496 17.31866621 13.53995551 20.17302107 10 24 C6.19154796 26.92957849 5.05617203 27 0 27 C0 18.09 0 9.18 0 0 Z " fill="#FDF1EF" transform="translate(399,178)" /><path d="M0 0 C0 3 0 3 -2.5 5.6875 C-3.325 6.450625 -4.15 7.21375 -5 8 C-5.66 7.67 -6.32 7.34 -7 7 C-4.78071806 4.09197539 -3.07030857 2.04687238 0 0 Z " fill="#EF3236" transform="translate(173,163)" /></svg>